<?xml version="1.0" encoding="UTF-8"?>
<!-- The Best Svg Icon site in the world: iconSvg.co, Visit us! https://iconsvg.co -->
<svg fill="#000000" width="800px" height="800px" version="1.1" viewBox="144 144 512 512" xmlns="http://www.w3.org/2000/svg">
 <path d="m400 169.09c-127.41 0-230.91 103.51-230.91 230.91 0 127.4 103.51 230.91 230.91 230.91 127.4 0 230.91-103.51 230.91-230.91 0-127.41-103.51-230.91-230.91-230.91zm0 52.48c98.422 0 178.43 80.012 178.43 178.43s-80.012 178.43-178.43 178.43c-98.422-0.003906-178.43-80.016-178.43-178.43 0-98.422 80.012-178.43 178.43-178.43zm0 20.992c-87.078 0-157.44 70.363-157.44 157.44 0 32.543 9.8359 62.75 26.691 87.824 12.906-43.863 46.996-78.527 90.363-92.066-13.789-11.574-22.59-28.922-22.59-48.238 0-34.656 28.32-62.977 62.977-62.977s62.977 28.32 62.977 62.977c0 19.316-8.8008 36.664-22.59 48.238 43.363 13.539 77.457 48.207 90.363 92.066 16.852-25.078 26.688-55.285 26.688-87.824 0-87.078-70.363-157.44-157.44-157.44zm0 62.977c-23.312 0-41.984 18.672-41.984 41.984s18.672 41.984 41.984 41.984 41.984-18.672 41.984-41.984-18.672-41.984-41.984-41.984zm0 104.96c-57.68 0-105.34 42.406-114.04 97.949 28.664 30.141 69.074 48.992 114.04 48.992 44.953 0 85.355-18.844 114.02-48.973-8.6992-55.547-56.34-97.969-114.02-97.969z"/>
</svg>